<mxfile host="app.diagrams.net" modified="2022-01-13T10:35:47.624Z" agent="5.0 (Macintosh; Intel Mac OS X 10_15_7) AppleWebKit/537.36 (KHTML, like Gecko) Chrome/96.0.4664.110 Safari/537.36" etag="KtC--C4G71J7O9yUfG5H" version="15.5.8" type="github" pages="5">
  <diagram name="action" id="ZmgsTJwCSUVpYqHxVXld">
    <mxGraphModel dx="786" dy="523" grid="1" gridSize="10" guides="1" tooltips="1" connect="1" arrows="1" fold="1" page="1" pageScale="1" pageWidth="827" pageHeight="1169" math="0" shadow="0">
      <root>
        <mxCell id="64gPIfemIm8wBGfhmk---0" />
        <mxCell id="64gPIfemIm8wBGfhmk---1" parent="64gPIfemIm8wBGfhmk---0" />
        <mxCell id="rY1zfkwRxjtRHLSeHKje-0" value="&lt;i&gt;Î©&lt;/i&gt;" style="shape=mxgraph.bpmn.data;labelPosition=center;verticalLabelPosition=bottom;align=center;verticalAlign=top;whiteSpace=wrap;size=15;html=1;bpmnTransferType=input;isCollection=1;fontSize=20;" vertex="1" parent="64gPIfemIm8wBGfhmk---1">
          <mxGeometry x="240" y="480" width="40" height="60" as="geometry" />
        </mxCell>
        <mxCell id="rY1zfkwRxjtRHLSeHKje-1" value="f()" style="points=[[0.25,0,0],[0.5,0,0],[0.75,0,0],[1,0.25,0],[1,0.5,0],[1,0.75,0],[0.75,1,0],[0.5,1,0],[0.25,1,0],[0,0.75,0],[0,0.5,0],[0,0.25,0]];shape=mxgraph.bpmn.task;whiteSpace=wrap;rectStyle=rounded;size=10;taskMarker=script;fontStyle=2;fontSize=20;" vertex="1" parent="64gPIfemIm8wBGfhmk---1">
          <mxGeometry x="320" y="360" width="120" height="80" as="geometry" />
        </mxCell>
        <mxCell id="rY1zfkwRxjtRHLSeHKje-2" value="" style="points=[[0.145,0.145,0],[0.5,0,0],[0.855,0.145,0],[1,0.5,0],[0.855,0.855,0],[0.5,1,0],[0.145,0.855,0],[0,0.5,0]];shape=mxgraph.bpmn.event;html=1;verticalLabelPosition=bottom;labelBackgroundColor=#ffffff;verticalAlign=top;align=center;perimeter=ellipsePerimeter;outlineConnect=0;aspect=fixed;outline=standard;symbol=general;fontSize=20;" vertex="1" parent="64gPIfemIm8wBGfhmk---1">
          <mxGeometry x="235" y="375" width="50" height="50" as="geometry" />
        </mxCell>
        <mxCell id="rY1zfkwRxjtRHLSeHKje-3" value="" style="points=[[0.145,0.145,0],[0.5,0,0],[0.855,0.145,0],[1,0.5,0],[0.855,0.855,0],[0.5,1,0],[0.145,0.855,0],[0,0.5,0]];shape=mxgraph.bpmn.event;html=1;verticalLabelPosition=bottom;labelBackgroundColor=#ffffff;verticalAlign=top;align=center;perimeter=ellipsePerimeter;outlineConnect=0;aspect=fixed;outline=end;symbol=terminate2;fontSize=20;" vertex="1" parent="64gPIfemIm8wBGfhmk---1">
          <mxGeometry x="475" y="375" width="50" height="50" as="geometry" />
        </mxCell>
        <mxCell id="rY1zfkwRxjtRHLSeHKje-4" value="" style="edgeStyle=elbowEdgeStyle;fontSize=12;html=1;endArrow=blockThin;endFill=1;exitX=1;exitY=0.5;exitDx=0;exitDy=0;exitPerimeter=0;entryX=0;entryY=0.5;entryDx=0;entryDy=0;entryPerimeter=0;" edge="1" parent="64gPIfemIm8wBGfhmk---1">
          <mxGeometry width="160" relative="1" as="geometry">
            <mxPoint x="700" y="430" as="sourcePoint" />
            <mxPoint x="740" y="430" as="targetPoint" />
          </mxGeometry>
        </mxCell>
        <mxCell id="rY1zfkwRxjtRHLSeHKje-5" value="" style="edgeStyle=elbowEdgeStyle;fontSize=12;html=1;endArrow=blockThin;endFill=1;exitX=1;exitY=0.5;exitDx=0;exitDy=0;exitPerimeter=0;" edge="1" parent="64gPIfemIm8wBGfhmk---1" source="rY1zfkwRxjtRHLSeHKje-1" target="rY1zfkwRxjtRHLSeHKje-3">
          <mxGeometry width="160" relative="1" as="geometry">
            <mxPoint x="570" y="350" as="sourcePoint" />
            <mxPoint x="460" y="420" as="targetPoint" />
          </mxGeometry>
        </mxCell>
        <mxCell id="rY1zfkwRxjtRHLSeHKje-6" value="" style="edgeStyle=elbowEdgeStyle;fontSize=12;html=1;endArrow=blockThin;endFill=1;exitX=1;exitY=0.5;exitDx=0;exitDy=0;exitPerimeter=0;entryX=0;entryY=0.5;entryDx=0;entryDy=0;entryPerimeter=0;" edge="1" parent="64gPIfemIm8wBGfhmk---1" source="rY1zfkwRxjtRHLSeHKje-2" target="rY1zfkwRxjtRHLSeHKje-1">
          <mxGeometry width="160" relative="1" as="geometry">
            <mxPoint x="460" y="320" as="sourcePoint" />
            <mxPoint x="500" y="320" as="targetPoint" />
            <Array as="points">
              <mxPoint x="300" y="400" />
              <mxPoint x="450" y="480" />
              <mxPoint x="480" y="560" />
            </Array>
          </mxGeometry>
        </mxCell>
        <mxCell id="rY1zfkwRxjtRHLSeHKje-7" value="" style="edgeStyle=elbowEdgeStyle;fontSize=12;html=1;endFill=0;startFill=0;endSize=6;startSize=6;dashed=1;dashPattern=1 4;endArrow=openThin;startArrow=none;exitX=0;exitY=0;exitDx=40;exitDy=37.5;exitPerimeter=0;entryX=0.5;entryY=1;entryDx=0;entryDy=0;entryPerimeter=0;" edge="1" parent="64gPIfemIm8wBGfhmk---1" source="rY1zfkwRxjtRHLSeHKje-0" target="rY1zfkwRxjtRHLSeHKje-1">
          <mxGeometry width="160" relative="1" as="geometry">
            <mxPoint x="341" y="557.5" as="sourcePoint" />
            <mxPoint x="413.5" y="510" as="targetPoint" />
            <Array as="points">
              <mxPoint x="380" y="500" />
              <mxPoint x="413.5" y="540" />
              <mxPoint x="383.5" y="550" />
              <mxPoint x="413.5" y="600" />
              <mxPoint x="443.5" y="580" />
            </Array>
          </mxGeometry>
        </mxCell>
        <mxCell id="rY1zfkwRxjtRHLSeHKje-8" value="" style="edgeStyle=elbowEdgeStyle;fontSize=12;html=1;endFill=0;startFill=0;endSize=6;startSize=6;dashed=1;dashPattern=1 4;endArrow=openThin;startArrow=none;exitX=0;exitY=0;exitDx=35;exitDy=27.5;exitPerimeter=0;entryX=0.25;entryY=1;entryDx=0;entryDy=0;entryPerimeter=0;" edge="1" parent="64gPIfemIm8wBGfhmk---1">
          <mxGeometry width="160" relative="1" as="geometry">
            <mxPoint x="610" y="597.5" as="sourcePoint" />
            <mxPoint x="682.5" y="550" as="targetPoint" />
            <Array as="points">
              <mxPoint x="682.5" y="580" />
              <mxPoint x="652.5" y="590" />
              <mxPoint x="682.5" y="640" />
              <mxPoint x="712.5" y="620" />
            </Array>
          </mxGeometry>
        </mxCell>
      </root>
    </mxGraphModel>
  </diagram>
  <diagram name="dataOp" id="CG3BJu0UHaNjeeqR862J">
    <mxGraphModel dx="786" dy="523" grid="1" gridSize="10" guides="1" tooltips="1" connect="1" arrows="1" fold="1" page="1" pageScale="1" pageWidth="827" pageHeight="1169" math="0" shadow="0">
      <root>
        <mxCell id="mtPQD3GBz3dvf0cSw5bS-0" />
        <mxCell id="mtPQD3GBz3dvf0cSw5bS-1" parent="mtPQD3GBz3dvf0cSw5bS-0" />
        <mxCell id="mtPQD3GBz3dvf0cSw5bS-6" value="Input" style="shape=mxgraph.bpmn.data;labelPosition=center;verticalLabelPosition=bottom;align=center;verticalAlign=top;whiteSpace=wrap;size=15;html=1;bpmnTransferType=input;isCollection=1;fillColor=#f8cecc;strokeColor=#b85450;fontFamily=Verdana;" parent="mtPQD3GBz3dvf0cSw5bS-1" vertex="1">
          <mxGeometry x="242.5" y="620" width="35" height="40" as="geometry" />
        </mxCell>
        <mxCell id="mtPQD3GBz3dvf0cSw5bS-7" value="" style="edgeStyle=elbowEdgeStyle;fontSize=12;html=1;endFill=0;startFill=0;endSize=6;startSize=6;dashed=1;dashPattern=1 4;endArrow=openThin;startArrow=none;exitX=0;exitY=0;exitDx=40;exitDy=37.5;exitPerimeter=0;entryX=0.25;entryY=1;entryDx=0;entryDy=0;entryPerimeter=0;" parent="mtPQD3GBz3dvf0cSw5bS-1" source="mtPQD3GBz3dvf0cSw5bS-6" target="mtPQD3GBz3dvf0cSw5bS-11" edge="1">
          <mxGeometry width="160" relative="1" as="geometry">
            <mxPoint x="320" y="650" as="sourcePoint" />
            <mxPoint x="410" y="640" as="targetPoint" />
            <Array as="points">
              <mxPoint x="350" y="660" />
            </Array>
          </mxGeometry>
        </mxCell>
        <mxCell id="mtPQD3GBz3dvf0cSw5bS-8" value="" style="points=[[0.145,0.145,0],[0.5,0,0],[0.855,0.145,0],[1,0.5,0],[0.855,0.855,0],[0.5,1,0],[0.145,0.855,0],[0,0.5,0]];shape=mxgraph.bpmn.event;html=1;verticalLabelPosition=bottom;labelBackgroundColor=#ffffff;verticalAlign=top;align=center;perimeter=ellipsePerimeter;outlineConnect=0;aspect=fixed;outline=standard;symbol=general;" parent="mtPQD3GBz3dvf0cSw5bS-1" vertex="1">
          <mxGeometry x="240" y="560" width="40" height="40" as="geometry" />
        </mxCell>
        <mxCell id="mtPQD3GBz3dvf0cSw5bS-9" value="" style="edgeStyle=elbowEdgeStyle;fontSize=12;html=1;endArrow=blockThin;endFill=1;exitX=1;exitY=0.5;exitDx=0;exitDy=0;exitPerimeter=0;entryX=0;entryY=0.5;entryDx=0;entryDy=0;entryPerimeter=0;" parent="mtPQD3GBz3dvf0cSw5bS-1" source="mtPQD3GBz3dvf0cSw5bS-8" target="mtPQD3GBz3dvf0cSw5bS-11" edge="1">
          <mxGeometry width="160" relative="1" as="geometry">
            <mxPoint x="320" y="650" as="sourcePoint" />
            <mxPoint x="330" y="580" as="targetPoint" />
          </mxGeometry>
        </mxCell>
        <mxCell id="mtPQD3GBz3dvf0cSw5bS-10" value="Subflow" style="points=[[0.25,0,0],[0.5,0,0],[0.75,0,0],[1,0.25,0],[1,0.5,0],[1,0.75,0],[0.75,1,0],[0.5,1,0],[0.25,1,0],[0,0.75,0],[0,0.5,0],[0,0.25,0]];shape=mxgraph.bpmn.task;whiteSpace=wrap;rectStyle=rounded;size=10;taskMarker=abstract;isLoopSub=1;fillColor=#d5e8d4;strokeColor=#82b366;fontFamily=Verdana;" parent="mtPQD3GBz3dvf0cSw5bS-1" vertex="1">
          <mxGeometry x="480" y="560" width="120" height="40" as="geometry" />
        </mxCell>
        <mxCell id="mtPQD3GBz3dvf0cSw5bS-11" value="Data Operation" style="points=[[0.25,0,0],[0.5,0,0],[0.75,0,0],[1,0.25,0],[1,0.5,0],[1,0.75,0],[0.75,1,0],[0.5,1,0],[0.25,1,0],[0,0.75,0],[0,0.5,0],[0,0.25,0]];shape=mxgraph.bpmn.task;whiteSpace=wrap;rectStyle=rounded;size=10;taskMarker=businessRule;fillColor=#fff2cc;strokeColor=#d6b656;fontFamily=Verdana;" parent="mtPQD3GBz3dvf0cSw5bS-1" vertex="1">
          <mxGeometry x="320" y="560" width="120" height="40" as="geometry" />
        </mxCell>
        <mxCell id="mtPQD3GBz3dvf0cSw5bS-12" value="" style="edgeStyle=elbowEdgeStyle;fontSize=12;html=1;endArrow=blockThin;endFill=1;exitX=1;exitY=0.5;exitDx=0;exitDy=0;exitPerimeter=0;entryX=0;entryY=0.5;entryDx=0;entryDy=0;entryPerimeter=0;" parent="mtPQD3GBz3dvf0cSw5bS-1" source="mtPQD3GBz3dvf0cSw5bS-11" target="mtPQD3GBz3dvf0cSw5bS-10" edge="1">
          <mxGeometry width="160" relative="1" as="geometry">
            <mxPoint x="290" y="590" as="sourcePoint" />
            <mxPoint x="340" y="590" as="targetPoint" />
          </mxGeometry>
        </mxCell>
        <mxCell id="mtPQD3GBz3dvf0cSw5bS-14" value="Results" style="shape=mxgraph.bpmn.data;labelPosition=center;verticalLabelPosition=bottom;align=center;verticalAlign=top;whiteSpace=wrap;size=15;html=1;bpmnTransferType=none;isCollection=1;fillColor=#f8cecc;strokeColor=#b85450;fontFamily=Verdana;" parent="mtPQD3GBz3dvf0cSw5bS-1" vertex="1">
          <mxGeometry x="442.5" y="620" width="35" height="40" as="geometry" />
        </mxCell>
        <mxCell id="mtPQD3GBz3dvf0cSw5bS-15" value="" style="edgeStyle=elbowEdgeStyle;fontSize=12;html=1;endFill=0;startFill=0;endSize=6;startSize=6;dashed=1;dashPattern=1 4;endArrow=openThin;startArrow=none;entryX=0.25;entryY=1;entryDx=0;entryDy=0;entryPerimeter=0;exitX=0;exitY=0;exitDx=35;exitDy=27.5;exitPerimeter=0;" parent="mtPQD3GBz3dvf0cSw5bS-1" source="mtPQD3GBz3dvf0cSw5bS-14" target="mtPQD3GBz3dvf0cSw5bS-10" edge="1">
          <mxGeometry width="160" relative="1" as="geometry">
            <mxPoint x="500" y="670" as="sourcePoint" />
            <mxPoint x="360" y="630" as="targetPoint" />
            <Array as="points">
              <mxPoint x="510" y="640" />
              <mxPoint x="500" y="630" />
              <mxPoint x="510" y="670" />
            </Array>
          </mxGeometry>
        </mxCell>
        <mxCell id="mtPQD3GBz3dvf0cSw5bS-16" value="" style="edgeStyle=elbowEdgeStyle;fontSize=12;html=1;endFill=0;startFill=0;endSize=6;startSize=6;dashed=1;dashPattern=1 4;endArrow=none;startArrow=none;exitX=0.75;exitY=1;exitDx=0;exitDy=0;exitPerimeter=0;entryX=0;entryY=0.5;entryDx=0;entryDy=0;entryPerimeter=0;" parent="mtPQD3GBz3dvf0cSw5bS-1" source="mtPQD3GBz3dvf0cSw5bS-11" target="mtPQD3GBz3dvf0cSw5bS-14" edge="1">
          <mxGeometry width="160" relative="1" as="geometry">
            <mxPoint x="320" y="650" as="sourcePoint" />
            <mxPoint x="480" y="650" as="targetPoint" />
            <Array as="points">
              <mxPoint x="410" y="630" />
              <mxPoint x="410" y="670" />
            </Array>
          </mxGeometry>
        </mxCell>
        <mxCell id="mtPQD3GBz3dvf0cSw5bS-19" value="" style="points=[[0.145,0.145,0],[0.5,0,0],[0.855,0.145,0],[1,0.5,0],[0.855,0.855,0],[0.5,1,0],[0.145,0.855,0],[0,0.5,0]];shape=mxgraph.bpmn.event;html=1;verticalLabelPosition=bottom;labelBackgroundColor=#ffffff;verticalAlign=top;align=center;perimeter=ellipsePerimeter;outlineConnect=0;aspect=fixed;outline=end;symbol=terminate2;" parent="mtPQD3GBz3dvf0cSw5bS-1" vertex="1">
          <mxGeometry x="640" y="560" width="40" height="40" as="geometry" />
        </mxCell>
        <mxCell id="mtPQD3GBz3dvf0cSw5bS-20" value="" style="edgeStyle=elbowEdgeStyle;fontSize=12;html=1;endArrow=blockThin;endFill=1;exitX=1;exitY=0.5;exitDx=0;exitDy=0;exitPerimeter=0;entryX=0;entryY=0.5;entryDx=0;entryDy=0;entryPerimeter=0;" parent="mtPQD3GBz3dvf0cSw5bS-1" source="mtPQD3GBz3dvf0cSw5bS-10" target="mtPQD3GBz3dvf0cSw5bS-19" edge="1">
          <mxGeometry width="160" relative="1" as="geometry">
            <mxPoint x="450" y="210" as="sourcePoint" />
            <mxPoint x="650" y="210" as="targetPoint" />
          </mxGeometry>
        </mxCell>
        <mxCell id="mtPQD3GBz3dvf0cSw5bS-36" value="Action Result" style="shape=mxgraph.bpmn.data;labelPosition=center;verticalLabelPosition=bottom;align=center;verticalAlign=top;whiteSpace=wrap;size=15;html=1;bpmnTransferType=output;fillColor=#e1d5e7;strokeColor=#9673a6;fontFamily=Verdana;" parent="mtPQD3GBz3dvf0cSw5bS-1" vertex="1">
          <mxGeometry x="642.5" y="620" width="35" height="40" as="geometry" />
        </mxCell>
        <mxCell id="mtPQD3GBz3dvf0cSw5bS-37" value="" style="edgeStyle=elbowEdgeStyle;fontSize=12;html=1;endFill=0;startFill=0;endSize=6;startSize=6;dashed=1;dashPattern=1 4;endArrow=openThin;startArrow=none;exitX=0.75;exitY=1;exitDx=0;exitDy=0;exitPerimeter=0;entryX=0;entryY=0.5;entryDx=0;entryDy=0;entryPerimeter=0;" parent="mtPQD3GBz3dvf0cSw5bS-1" source="mtPQD3GBz3dvf0cSw5bS-10" target="mtPQD3GBz3dvf0cSw5bS-36" edge="1">
          <mxGeometry width="160" relative="1" as="geometry">
            <mxPoint x="570" y="640" as="sourcePoint" />
            <mxPoint x="630" y="740" as="targetPoint" />
            <Array as="points">
              <mxPoint x="570" y="630" />
              <mxPoint x="600" y="650" />
              <mxPoint x="570" y="680" />
              <mxPoint x="550" y="700" />
            </Array>
          </mxGeometry>
        </mxCell>
        <mxCell id="rlijMssMlbkgLzOLZvpP-0" value="&lt;i&gt;Î©&lt;/i&gt;" style="shape=mxgraph.bpmn.data;labelPosition=center;verticalLabelPosition=bottom;align=center;verticalAlign=top;whiteSpace=wrap;size=15;html=1;bpmnTransferType=input;isCollection=1;fontSize=20;" vertex="1" parent="mtPQD3GBz3dvf0cSw5bS-1">
          <mxGeometry x="241" y="920" width="40" height="60" as="geometry" />
        </mxCell>
        <mxCell id="rlijMssMlbkgLzOLZvpP-2" value="" style="points=[[0.145,0.145,0],[0.5,0,0],[0.855,0.145,0],[1,0.5,0],[0.855,0.855,0],[0.5,1,0],[0.145,0.855,0],[0,0.5,0]];shape=mxgraph.bpmn.event;html=1;verticalLabelPosition=bottom;labelBackgroundColor=#ffffff;verticalAlign=top;align=center;perimeter=ellipsePerimeter;outlineConnect=0;aspect=fixed;outline=standard;symbol=general;fontSize=20;" vertex="1" parent="mtPQD3GBz3dvf0cSw5bS-1">
          <mxGeometry x="235" y="815" width="50" height="50" as="geometry" />
        </mxCell>
        <mxCell id="rlijMssMlbkgLzOLZvpP-3" value="" style="points=[[0.145,0.145,0],[0.5,0,0],[0.855,0.145,0],[1,0.5,0],[0.855,0.855,0],[0.5,1,0],[0.145,0.855,0],[0,0.5,0]];shape=mxgraph.bpmn.event;html=1;verticalLabelPosition=bottom;labelBackgroundColor=#ffffff;verticalAlign=top;align=center;perimeter=ellipsePerimeter;outlineConnect=0;aspect=fixed;outline=end;symbol=terminate2;fontSize=20;" vertex="1" parent="mtPQD3GBz3dvf0cSw5bS-1">
          <mxGeometry x="680" y="815" width="50" height="50" as="geometry" />
        </mxCell>
        <mxCell id="rlijMssMlbkgLzOLZvpP-4" value="" style="edgeStyle=elbowEdgeStyle;fontSize=12;html=1;endArrow=blockThin;endFill=1;exitX=1;exitY=0.5;exitDx=0;exitDy=0;exitPerimeter=0;" edge="1" parent="mtPQD3GBz3dvf0cSw5bS-1" source="rlijMssMlbkgLzOLZvpP-8" target="rlijMssMlbkgLzOLZvpP-3">
          <mxGeometry width="160" relative="1" as="geometry">
            <mxPoint x="570" y="790" as="sourcePoint" />
            <mxPoint x="460" y="860" as="targetPoint" />
          </mxGeometry>
        </mxCell>
        <mxCell id="rlijMssMlbkgLzOLZvpP-5" value="" style="edgeStyle=elbowEdgeStyle;fontSize=12;html=1;endArrow=blockThin;endFill=1;exitX=1;exitY=0.5;exitDx=0;exitDy=0;exitPerimeter=0;entryX=0;entryY=0.5;entryDx=0;entryDy=0;entryPerimeter=0;" edge="1" parent="mtPQD3GBz3dvf0cSw5bS-1" source="rlijMssMlbkgLzOLZvpP-2" target="rlijMssMlbkgLzOLZvpP-7">
          <mxGeometry width="160" relative="1" as="geometry">
            <mxPoint x="460" y="760" as="sourcePoint" />
            <mxPoint x="500" y="760" as="targetPoint" />
            <Array as="points">
              <mxPoint x="300" y="840" />
              <mxPoint x="450" y="920" />
              <mxPoint x="480" y="1000" />
            </Array>
          </mxGeometry>
        </mxCell>
        <mxCell id="rlijMssMlbkgLzOLZvpP-6" value="" style="edgeStyle=elbowEdgeStyle;fontSize=12;html=1;endFill=0;startFill=0;endSize=6;startSize=6;dashed=1;dashPattern=1 4;endArrow=openThin;startArrow=none;exitX=0;exitY=0;exitDx=40;exitDy=37.5;exitPerimeter=0;entryX=0.25;entryY=1;entryDx=0;entryDy=0;entryPerimeter=0;" edge="1" parent="mtPQD3GBz3dvf0cSw5bS-1" source="rlijMssMlbkgLzOLZvpP-0" target="rlijMssMlbkgLzOLZvpP-7">
          <mxGeometry width="160" relative="1" as="geometry">
            <mxPoint x="341" y="997.5" as="sourcePoint" />
            <mxPoint x="413.5" y="950" as="targetPoint" />
            <Array as="points">
              <mxPoint x="350" y="930" />
              <mxPoint x="360" y="930" />
              <mxPoint x="380" y="940" />
              <mxPoint x="413.5" y="980" />
              <mxPoint x="383.5" y="990" />
              <mxPoint x="413.5" y="1040" />
              <mxPoint x="443.5" y="1020" />
            </Array>
          </mxGeometry>
        </mxCell>
        <mxCell id="rlijMssMlbkgLzOLZvpP-7" value="X" style="points=[[0.25,0,0],[0.5,0,0],[0.75,0,0],[1,0.25,0],[1,0.5,0],[1,0.75,0],[0.75,1,0],[0.5,1,0],[0.25,1,0],[0,0.75,0],[0,0.5,0],[0,0.25,0]];shape=mxgraph.bpmn.task;whiteSpace=wrap;rectStyle=rounded;size=10;taskMarker=businessRule;fontSize=20;" vertex="1" parent="mtPQD3GBz3dvf0cSw5bS-1">
          <mxGeometry x="320" y="800" width="120" height="80" as="geometry" />
        </mxCell>
        <mxCell id="rlijMssMlbkgLzOLZvpP-8" value="F" style="points=[[0.25,0,0],[0.5,0,0],[0.75,0,0],[1,0.25,0],[1,0.5,0],[1,0.75,0],[0.75,1,0],[0.5,1,0],[0.25,1,0],[0,0.75,0],[0,0.5,0],[0,0.25,0]];shape=mxgraph.bpmn.task;whiteSpace=wrap;rectStyle=rounded;size=10;taskMarker=abstract;isLoopSub=1;fontSize=20;fontStyle=2" vertex="1" parent="mtPQD3GBz3dvf0cSw5bS-1">
          <mxGeometry x="520" y="800" width="120" height="80" as="geometry" />
        </mxCell>
        <mxCell id="rlijMssMlbkgLzOLZvpP-9" value="" style="edgeStyle=elbowEdgeStyle;fontSize=12;html=1;endArrow=blockThin;endFill=1;exitX=1;exitY=0.5;exitDx=0;exitDy=0;exitPerimeter=0;entryX=0;entryY=0.5;entryDx=0;entryDy=0;entryPerimeter=0;" edge="1" parent="mtPQD3GBz3dvf0cSw5bS-1" source="rlijMssMlbkgLzOLZvpP-7" target="rlijMssMlbkgLzOLZvpP-8">
          <mxGeometry width="160" relative="1" as="geometry">
            <mxPoint x="530" y="960" as="sourcePoint" />
            <mxPoint x="660" y="960" as="targetPoint" />
          </mxGeometry>
        </mxCell>
        <mxCell id="rlijMssMlbkgLzOLZvpP-10" value="&lt;font&gt;&lt;font face=&quot;Courier New&quot; size=&quot;1&quot;&gt;&lt;b style=&quot;font-size: 17px&quot;&gt;eval&lt;/b&gt;&lt;/font&gt;&lt;span style=&quot;font-size: 20px&quot;&gt;(&lt;/span&gt;&lt;i style=&quot;font-size: 20px&quot;&gt;D&lt;/i&gt;&lt;span style=&quot;font-size: 20px&quot;&gt;(&lt;/span&gt;&lt;i style=&quot;font-size: 20px&quot;&gt;G&lt;/i&gt;&lt;span style=&quot;font-size: 20px&quot;&gt;),&amp;nbsp;&lt;/span&gt;&lt;i style=&quot;font-size: 20px&quot;&gt;X&lt;/i&gt;&lt;span style=&quot;font-size: 20px&quot;&gt;(&lt;/span&gt;&lt;i style=&quot;font-size: 20px&quot;&gt;Î©&lt;/i&gt;&lt;span style=&quot;font-size: 20px&quot;&gt;))&lt;/span&gt;&lt;/font&gt;" style="shape=mxgraph.bpmn.data;labelPosition=center;verticalLabelPosition=bottom;align=center;verticalAlign=top;size=15;html=1;bpmnTransferType=none;isCollection=1;fontSize=20;" vertex="1" parent="mtPQD3GBz3dvf0cSw5bS-1">
          <mxGeometry x="460" y="920" width="40" height="60" as="geometry" />
        </mxCell>
        <mxCell id="rlijMssMlbkgLzOLZvpP-11" value="" style="edgeStyle=elbowEdgeStyle;fontSize=12;html=1;endFill=0;startFill=0;endSize=6;startSize=6;dashed=1;dashPattern=1 4;endArrow=openThin;startArrow=none;exitX=0.75;exitY=1;exitDx=0;exitDy=0;exitPerimeter=0;entryX=0;entryY=0.5;entryDx=0;entryDy=0;entryPerimeter=0;" edge="1" parent="mtPQD3GBz3dvf0cSw5bS-1" source="rlijMssMlbkgLzOLZvpP-7" target="rlijMssMlbkgLzOLZvpP-10">
          <mxGeometry width="160" relative="1" as="geometry">
            <mxPoint x="290" y="967.5" as="sourcePoint" />
            <mxPoint x="360" y="890" as="targetPoint" />
            <Array as="points">
              <mxPoint x="410" y="930" />
              <mxPoint x="360" y="940" />
              <mxPoint x="370" y="940" />
              <mxPoint x="390" y="950" />
              <mxPoint x="423.5" y="990" />
              <mxPoint x="393.5" y="1000" />
              <mxPoint x="423.5" y="1050" />
              <mxPoint x="453.5" y="1030" />
            </Array>
          </mxGeometry>
        </mxCell>
        <mxCell id="rlijMssMlbkgLzOLZvpP-12" value="" style="edgeStyle=elbowEdgeStyle;fontSize=12;html=1;endFill=0;startFill=0;endSize=6;startSize=6;dashed=1;dashPattern=1 4;endArrow=openThin;startArrow=none;exitX=0;exitY=0;exitDx=40;exitDy=37.5;exitPerimeter=0;entryX=0.25;entryY=1;entryDx=0;entryDy=0;entryPerimeter=0;" edge="1" parent="mtPQD3GBz3dvf0cSw5bS-1" source="rlijMssMlbkgLzOLZvpP-10" target="rlijMssMlbkgLzOLZvpP-8">
          <mxGeometry width="160" relative="1" as="geometry">
            <mxPoint x="530" y="1017.5" as="sourcePoint" />
            <mxPoint x="600" y="940" as="targetPoint" />
            <Array as="points">
              <mxPoint x="550" y="910" />
              <mxPoint x="510" y="930" />
              <mxPoint x="540" y="940" />
              <mxPoint x="530" y="970" />
              <mxPoint x="600" y="990" />
              <mxPoint x="610" y="990" />
              <mxPoint x="630" y="1000" />
              <mxPoint x="663.5" y="1040" />
              <mxPoint x="633.5" y="1050" />
              <mxPoint x="663.5" y="1100" />
              <mxPoint x="693.5" y="1080" />
            </Array>
          </mxGeometry>
        </mxCell>
        <mxCell id="I0YLZmHu2buA1VgCKHsa-0" value="&lt;i&gt;D&lt;/i&gt;(&lt;i&gt;G&lt;/i&gt;)" style="shape=mxgraph.bpmn.data;labelPosition=center;verticalLabelPosition=bottom;align=center;verticalAlign=top;whiteSpace=wrap;size=15;html=1;bpmnTransferType=input;isCollection=1;fontSize=20;" vertex="1" parent="mtPQD3GBz3dvf0cSw5bS-1">
          <mxGeometry x="240" y="1040" width="40" height="60" as="geometry" />
        </mxCell>
        <mxCell id="I0YLZmHu2buA1VgCKHsa-1" value="" style="edgeStyle=elbowEdgeStyle;fontSize=12;html=1;endFill=0;startFill=0;endSize=6;startSize=6;dashed=1;dashPattern=1 4;endArrow=openThin;startArrow=none;exitX=0;exitY=0;exitDx=40;exitDy=37.5;exitPerimeter=0;entryX=0.5;entryY=1;entryDx=0;entryDy=0;entryPerimeter=0;" edge="1" parent="mtPQD3GBz3dvf0cSw5bS-1" source="I0YLZmHu2buA1VgCKHsa-0" target="rlijMssMlbkgLzOLZvpP-7">
          <mxGeometry width="160" relative="1" as="geometry">
            <mxPoint x="290" y="967.5" as="sourcePoint" />
            <mxPoint x="360" y="890" as="targetPoint" />
            <Array as="points">
              <mxPoint x="380" y="1030" />
              <mxPoint x="360" y="940" />
              <mxPoint x="370" y="940" />
              <mxPoint x="390" y="950" />
              <mxPoint x="423.5" y="990" />
              <mxPoint x="393.5" y="1000" />
              <mxPoint x="423.5" y="1050" />
              <mxPoint x="453.5" y="1030" />
            </Array>
          </mxGeometry>
        </mxCell>
        <mxCell id="4f34kjib-TBLV56T7WzX-1" value="" style="edgeStyle=elbowEdgeStyle;fontSize=12;html=1;endFill=0;startFill=0;endSize=6;startSize=6;dashed=1;dashPattern=1 4;endArrow=openThin;startArrow=none;exitX=0;exitY=0;exitDx=40;exitDy=37.5;exitPerimeter=0;entryX=0.75;entryY=1;entryDx=0;entryDy=0;entryPerimeter=0;" edge="1" parent="mtPQD3GBz3dvf0cSw5bS-1" source="I0YLZmHu2buA1VgCKHsa-0" target="rlijMssMlbkgLzOLZvpP-8">
          <mxGeometry width="160" relative="1" as="geometry">
            <mxPoint x="290" y="1087.5" as="sourcePoint" />
            <mxPoint x="390" y="890" as="targetPoint" />
            <Array as="points">
              <mxPoint x="610" y="940" />
              <mxPoint x="570" y="1010" />
              <mxPoint x="390" y="1040" />
              <mxPoint x="370" y="950" />
              <mxPoint x="380" y="950" />
              <mxPoint x="400" y="960" />
              <mxPoint x="433.5" y="1000" />
              <mxPoint x="403.5" y="1010" />
              <mxPoint x="433.5" y="1060" />
              <mxPoint x="463.5" y="1040" />
            </Array>
          </mxGeometry>
        </mxCell>
      </root>
    </mxGraphModel>
  </diagram>
  <diagram name="seq" id="PIpiAjDzQvv26k8Qm0He">
    <mxGraphModel dx="786" dy="523" grid="1" gridSize="10" guides="1" tooltips="1" connect="1" arrows="1" fold="1" page="1" pageScale="1" pageWidth="827" pageHeight="1169" math="0" shadow="0">
      <root>
        <mxCell id="oDSJOYrTl1rFPSjPKtZr-0" />
        <mxCell id="oDSJOYrTl1rFPSjPKtZr-1" parent="oDSJOYrTl1rFPSjPKtZr-0" />
        <mxCell id="oDSJOYrTl1rFPSjPKtZr-16" value="&lt;i&gt;Î©&lt;/i&gt;" style="shape=mxgraph.bpmn.data;labelPosition=center;verticalLabelPosition=bottom;align=center;verticalAlign=top;whiteSpace=wrap;size=15;html=1;bpmnTransferType=input;isCollection=1;fontSize=20;" vertex="1" parent="oDSJOYrTl1rFPSjPKtZr-1">
          <mxGeometry x="240" y="920" width="40" height="60" as="geometry" />
        </mxCell>
        <mxCell id="oDSJOYrTl1rFPSjPKtZr-17" value="" style="points=[[0.145,0.145,0],[0.5,0,0],[0.855,0.145,0],[1,0.5,0],[0.855,0.855,0],[0.5,1,0],[0.145,0.855,0],[0,0.5,0]];shape=mxgraph.bpmn.event;html=1;verticalLabelPosition=bottom;labelBackgroundColor=#ffffff;verticalAlign=top;align=center;perimeter=ellipsePerimeter;outlineConnect=0;aspect=fixed;outline=standard;symbol=general;fontSize=20;" vertex="1" parent="oDSJOYrTl1rFPSjPKtZr-1">
          <mxGeometry x="235" y="815" width="50" height="50" as="geometry" />
        </mxCell>
        <mxCell id="oDSJOYrTl1rFPSjPKtZr-18" value="" style="points=[[0.145,0.145,0],[0.5,0,0],[0.855,0.145,0],[1,0.5,0],[0.855,0.855,0],[0.5,1,0],[0.145,0.855,0],[0,0.5,0]];shape=mxgraph.bpmn.event;html=1;verticalLabelPosition=bottom;labelBackgroundColor=#ffffff;verticalAlign=top;align=center;perimeter=ellipsePerimeter;outlineConnect=0;aspect=fixed;outline=end;symbol=terminate2;fontSize=20;" vertex="1" parent="oDSJOYrTl1rFPSjPKtZr-1">
          <mxGeometry x="920" y="815" width="50" height="50" as="geometry" />
        </mxCell>
        <mxCell id="oDSJOYrTl1rFPSjPKtZr-19" value="" style="edgeStyle=elbowEdgeStyle;fontSize=12;html=1;endArrow=blockThin;endFill=1;exitX=1;exitY=0.5;exitDx=0;exitDy=0;exitPerimeter=0;" edge="1" parent="oDSJOYrTl1rFPSjPKtZr-1" source="oDSJOYrTl1rFPSjPKtZr-31" target="oDSJOYrTl1rFPSjPKtZr-18">
          <mxGeometry width="160" relative="1" as="geometry">
            <mxPoint x="1010" y="840" as="sourcePoint" />
            <mxPoint x="870" y="860" as="targetPoint" />
          </mxGeometry>
        </mxCell>
        <mxCell id="oDSJOYrTl1rFPSjPKtZr-20" value="" style="edgeStyle=elbowEdgeStyle;fontSize=12;html=1;endArrow=blockThin;endFill=1;exitX=1;exitY=0.5;exitDx=0;exitDy=0;exitPerimeter=0;entryX=0;entryY=0.5;entryDx=0;entryDy=0;entryPerimeter=0;" edge="1" parent="oDSJOYrTl1rFPSjPKtZr-1" source="oDSJOYrTl1rFPSjPKtZr-17" target="oDSJOYrTl1rFPSjPKtZr-23">
          <mxGeometry width="160" relative="1" as="geometry">
            <mxPoint x="460" y="760" as="sourcePoint" />
            <mxPoint x="500" y="760" as="targetPoint" />
            <Array as="points">
              <mxPoint x="300" y="840" />
              <mxPoint x="450" y="920" />
              <mxPoint x="480" y="1000" />
            </Array>
          </mxGeometry>
        </mxCell>
        <mxCell id="oDSJOYrTl1rFPSjPKtZr-21" value="" style="edgeStyle=elbowEdgeStyle;fontSize=12;html=1;endFill=0;startFill=0;endSize=6;startSize=6;dashed=1;dashPattern=1 4;endArrow=openThin;startArrow=none;exitX=0;exitY=0;exitDx=40;exitDy=37.5;exitPerimeter=0;entryX=0.25;entryY=1;entryDx=0;entryDy=0;entryPerimeter=0;" edge="1" parent="oDSJOYrTl1rFPSjPKtZr-1" source="oDSJOYrTl1rFPSjPKtZr-16" target="oDSJOYrTl1rFPSjPKtZr-23">
          <mxGeometry width="160" relative="1" as="geometry">
            <mxPoint x="341" y="997.5" as="sourcePoint" />
            <mxPoint x="413.5" y="950" as="targetPoint" />
            <Array as="points">
              <mxPoint x="350" y="930" />
              <mxPoint x="360" y="930" />
              <mxPoint x="380" y="940" />
              <mxPoint x="413.5" y="980" />
              <mxPoint x="383.5" y="990" />
              <mxPoint x="413.5" y="1040" />
              <mxPoint x="443.5" y="1020" />
            </Array>
          </mxGeometry>
        </mxCell>
        <mxCell id="oDSJOYrTl1rFPSjPKtZr-22" value="X" style="points=[[0.25,0,0],[0.5,0,0],[0.75,0,0],[1,0.25,0],[1,0.5,0],[1,0.75,0],[0.75,1,0],[0.5,1,0],[0.25,1,0],[0,0.75,0],[0,0.5,0],[0,0.25,0]];shape=mxgraph.bpmn.task;whiteSpace=wrap;rectStyle=rounded;size=10;taskMarker=businessRule;fontSize=20;" vertex="1" parent="oDSJOYrTl1rFPSjPKtZr-1">
          <mxGeometry x="540" y="680" width="120" height="80" as="geometry" />
        </mxCell>
        <mxCell id="oDSJOYrTl1rFPSjPKtZr-23" value="Fâ" style="points=[[0.25,0,0],[0.5,0,0],[0.75,0,0],[1,0.25,0],[1,0.5,0],[1,0.75,0],[0.75,1,0],[0.5,1,0],[0.25,1,0],[0,0.75,0],[0,0.5,0],[0,0.25,0]];shape=mxgraph.bpmn.task;whiteSpace=wrap;rectStyle=rounded;size=10;taskMarker=abstract;isLoopSub=1;fontSize=20;fontStyle=2" vertex="1" parent="oDSJOYrTl1rFPSjPKtZr-1">
          <mxGeometry x="320" y="800" width="120" height="80" as="geometry" />
        </mxCell>
        <mxCell id="oDSJOYrTl1rFPSjPKtZr-27" value="" style="edgeStyle=elbowEdgeStyle;fontSize=12;html=1;endFill=0;startFill=0;endSize=6;startSize=6;dashed=1;dashPattern=1 4;endArrow=openThin;startArrow=none;exitX=0;exitY=0;exitDx=40;exitDy=37.5;exitPerimeter=0;entryX=0.25;entryY=1;entryDx=0;entryDy=0;entryPerimeter=0;" edge="1" parent="oDSJOYrTl1rFPSjPKtZr-1" source="oDSJOYrTl1rFPSjPKtZr-16" target="oDSJOYrTl1rFPSjPKtZr-31">
          <mxGeometry width="160" relative="1" as="geometry">
            <mxPoint x="650" y="1100" as="sourcePoint" />
            <mxPoint x="790" y="1010" as="targetPoint" />
            <Array as="points">
              <mxPoint x="790" y="930" />
              <mxPoint x="710" y="1082.5" />
              <mxPoint x="700" y="1112.5" />
              <mxPoint x="770" y="1132.5" />
              <mxPoint x="780" y="1132.5" />
              <mxPoint x="800" y="1142.5" />
              <mxPoint x="833.5" y="1182.5" />
              <mxPoint x="803.5" y="1192.5" />
              <mxPoint x="833.5" y="1242.5" />
              <mxPoint x="863.5" y="1222.5" />
            </Array>
          </mxGeometry>
        </mxCell>
        <mxCell id="oDSJOYrTl1rFPSjPKtZr-28" value="&lt;i&gt;D&lt;/i&gt;(&lt;i&gt;G&lt;/i&gt;)" style="shape=mxgraph.bpmn.data;labelPosition=center;verticalLabelPosition=bottom;align=center;verticalAlign=top;whiteSpace=wrap;size=15;html=1;bpmnTransferType=input;isCollection=1;fontSize=20;" vertex="1" parent="oDSJOYrTl1rFPSjPKtZr-1">
          <mxGeometry x="241" y="1040" width="40" height="60" as="geometry" />
        </mxCell>
        <mxCell id="oDSJOYrTl1rFPSjPKtZr-29" value="" style="edgeStyle=elbowEdgeStyle;fontSize=12;html=1;endFill=0;startFill=0;endSize=6;startSize=6;dashed=1;dashPattern=1 4;endArrow=openThin;startArrow=none;exitX=0;exitY=0;exitDx=40;exitDy=37.5;exitPerimeter=0;entryX=0.75;entryY=1;entryDx=0;entryDy=0;entryPerimeter=0;" edge="1" parent="oDSJOYrTl1rFPSjPKtZr-1" source="oDSJOYrTl1rFPSjPKtZr-28" target="oDSJOYrTl1rFPSjPKtZr-23">
          <mxGeometry width="160" relative="1" as="geometry">
            <mxPoint x="290" y="967.5" as="sourcePoint" />
            <mxPoint x="360" y="890" as="targetPoint" />
            <Array as="points">
              <mxPoint x="410" y="950" />
              <mxPoint x="380" y="950" />
              <mxPoint x="550" y="930" />
              <mxPoint x="380" y="1030" />
              <mxPoint x="360" y="940" />
              <mxPoint x="370" y="940" />
              <mxPoint x="390" y="950" />
              <mxPoint x="423.5" y="990" />
              <mxPoint x="393.5" y="1000" />
              <mxPoint x="423.5" y="1050" />
              <mxPoint x="453.5" y="1030" />
            </Array>
          </mxGeometry>
        </mxCell>
        <mxCell id="oDSJOYrTl1rFPSjPKtZr-30" value="Fâ" style="points=[[0.25,0,0],[0.5,0,0],[0.75,0,0],[1,0.25,0],[1,0.5,0],[1,0.75,0],[0.75,1,0],[0.5,1,0],[0.25,1,0],[0,0.75,0],[0,0.5,0],[0,0.25,0]];shape=mxgraph.bpmn.task;whiteSpace=wrap;rectStyle=rounded;size=10;taskMarker=abstract;isLoopSub=1;fontSize=20;fontStyle=2" vertex="1" parent="oDSJOYrTl1rFPSjPKtZr-1">
          <mxGeometry x="480" y="800" width="120" height="80" as="geometry" />
        </mxCell>
        <mxCell id="oDSJOYrTl1rFPSjPKtZr-31" value="Fâ" style="points=[[0.25,0,0],[0.5,0,0],[0.75,0,0],[1,0.25,0],[1,0.5,0],[1,0.75,0],[0.75,1,0],[0.5,1,0],[0.25,1,0],[0,0.75,0],[0,0.5,0],[0,0.25,0]];shape=mxgraph.bpmn.task;whiteSpace=wrap;rectStyle=rounded;size=10;taskMarker=abstract;isLoopSub=1;fontSize=20;fontStyle=2" vertex="1" parent="oDSJOYrTl1rFPSjPKtZr-1">
          <mxGeometry x="760" y="800" width="120" height="80" as="geometry" />
        </mxCell>
        <mxCell id="-3-gw3Ichaiu_LMAoTk1-0" value="&lt;font&gt;&lt;font style=&quot;font-size: 30px&quot;&gt;...&lt;/font&gt;&lt;br&gt;&lt;/font&gt;" style="text;html=1;strokeColor=none;fillColor=none;align=center;verticalAlign=middle;whiteSpace=wrap;rounded=0;" vertex="1" parent="oDSJOYrTl1rFPSjPKtZr-1">
          <mxGeometry x="640" y="830" width="80" height="20" as="geometry" />
        </mxCell>
        <mxCell id="-3-gw3Ichaiu_LMAoTk1-1" value="" style="edgeStyle=elbowEdgeStyle;fontSize=12;html=1;endArrow=blockThin;endFill=1;entryX=0;entryY=0.5;entryDx=0;entryDy=0;entryPerimeter=0;" edge="1" parent="oDSJOYrTl1rFPSjPKtZr-1" target="oDSJOYrTl1rFPSjPKtZr-30">
          <mxGeometry width="160" relative="1" as="geometry">
            <mxPoint x="440" y="840" as="sourcePoint" />
            <mxPoint x="330" y="850" as="targetPoint" />
            <Array as="points">
              <mxPoint x="460" y="760" />
              <mxPoint x="310" y="850" />
              <mxPoint x="460" y="930" />
              <mxPoint x="490" y="1010" />
            </Array>
          </mxGeometry>
        </mxCell>
        <mxCell id="-3-gw3Ichaiu_LMAoTk1-2" value="" style="edgeStyle=elbowEdgeStyle;fontSize=12;html=1;endArrow=blockThin;endFill=1;entryX=0;entryY=0.5;entryDx=0;entryDy=0;entryPerimeter=0;exitX=1;exitY=0.5;exitDx=0;exitDy=0;" edge="1" parent="oDSJOYrTl1rFPSjPKtZr-1" source="-3-gw3Ichaiu_LMAoTk1-0" target="oDSJOYrTl1rFPSjPKtZr-31">
          <mxGeometry width="160" relative="1" as="geometry">
            <mxPoint x="730" y="910" as="sourcePoint" />
            <mxPoint x="770" y="910" as="targetPoint" />
            <Array as="points">
              <mxPoint x="750" y="830" />
              <mxPoint x="600" y="920" />
              <mxPoint x="750" y="1000" />
              <mxPoint x="780" y="1080" />
            </Array>
          </mxGeometry>
        </mxCell>
        <mxCell id="-3-gw3Ichaiu_LMAoTk1-3" value="" style="edgeStyle=elbowEdgeStyle;fontSize=12;html=1;endArrow=blockThin;endFill=1;entryX=0;entryY=0.5;entryDx=0;entryDy=0;exitX=1;exitY=0.5;exitDx=0;exitDy=0;exitPerimeter=0;" edge="1" parent="oDSJOYrTl1rFPSjPKtZr-1" source="oDSJOYrTl1rFPSjPKtZr-30" target="-3-gw3Ichaiu_LMAoTk1-0">
          <mxGeometry width="160" relative="1" as="geometry">
            <mxPoint x="510" y="1079.5" as="sourcePoint" />
            <mxPoint x="550" y="1079.5" as="targetPoint" />
            <Array as="points">
              <mxPoint x="610" y="860" />
              <mxPoint x="530" y="999.5" />
              <mxPoint x="380" y="1089.5" />
              <mxPoint x="530" y="1169.5" />
              <mxPoint x="560" y="1249.5" />
            </Array>
          </mxGeometry>
        </mxCell>
        <mxCell id="-3-gw3Ichaiu_LMAoTk1-5" value="" style="edgeStyle=elbowEdgeStyle;fontSize=12;html=1;endFill=0;startFill=0;endSize=6;startSize=6;dashed=1;dashPattern=1 4;endArrow=openThin;startArrow=none;exitX=0;exitY=0;exitDx=40;exitDy=37.5;exitPerimeter=0;entryX=0.25;entryY=1;entryDx=0;entryDy=0;entryPerimeter=0;" edge="1" parent="oDSJOYrTl1rFPSjPKtZr-1" source="oDSJOYrTl1rFPSjPKtZr-16" target="oDSJOYrTl1rFPSjPKtZr-30">
          <mxGeometry width="160" relative="1" as="geometry">
            <mxPoint x="290" y="967.5" as="sourcePoint" />
            <mxPoint x="360" y="890" as="targetPoint" />
            <Array as="points">
              <mxPoint x="510" y="930" />
              <mxPoint x="360" y="940" />
              <mxPoint x="370" y="940" />
              <mxPoint x="390" y="950" />
              <mxPoint x="423.5" y="990" />
              <mxPoint x="393.5" y="1000" />
              <mxPoint x="423.5" y="1050" />
              <mxPoint x="453.5" y="1030" />
            </Array>
          </mxGeometry>
        </mxCell>
        <mxCell id="-3-gw3Ichaiu_LMAoTk1-6" value="" style="edgeStyle=elbowEdgeStyle;fontSize=12;html=1;endFill=0;startFill=0;endSize=6;startSize=6;dashed=1;dashPattern=1 4;endArrow=openThin;startArrow=none;exitX=0;exitY=0;exitDx=40;exitDy=37.5;exitPerimeter=0;entryX=0.75;entryY=1;entryDx=0;entryDy=0;entryPerimeter=0;" edge="1" parent="oDSJOYrTl1rFPSjPKtZr-1" source="oDSJOYrTl1rFPSjPKtZr-28" target="oDSJOYrTl1rFPSjPKtZr-30">
          <mxGeometry width="160" relative="1" as="geometry">
            <mxPoint x="290" y="1087.5" as="sourcePoint" />
            <mxPoint x="600" y="910" as="targetPoint" />
            <Array as="points">
              <mxPoint x="570" y="990" />
              <mxPoint x="420" y="960" />
              <mxPoint x="390" y="960" />
              <mxPoint x="560" y="940" />
              <mxPoint x="390" y="1040" />
              <mxPoint x="370" y="950" />
              <mxPoint x="380" y="950" />
              <mxPoint x="400" y="960" />
              <mxPoint x="433.5" y="1000" />
              <mxPoint x="403.5" y="1010" />
              <mxPoint x="433.5" y="1060" />
              <mxPoint x="463.5" y="1040" />
            </Array>
          </mxGeometry>
        </mxCell>
        <mxCell id="-3-gw3Ichaiu_LMAoTk1-7" value="" style="edgeStyle=elbowEdgeStyle;fontSize=12;html=1;endFill=0;startFill=0;endSize=6;startSize=6;dashed=1;dashPattern=1 4;endArrow=openThin;startArrow=none;exitX=0;exitY=0;exitDx=40;exitDy=37.5;exitPerimeter=0;entryX=0.75;entryY=1;entryDx=0;entryDy=0;entryPerimeter=0;" edge="1" parent="oDSJOYrTl1rFPSjPKtZr-1" source="oDSJOYrTl1rFPSjPKtZr-28" target="oDSJOYrTl1rFPSjPKtZr-31">
          <mxGeometry width="160" relative="1" as="geometry">
            <mxPoint x="300" y="1097.5" as="sourcePoint" />
            <mxPoint x="430" y="900" as="targetPoint" />
            <Array as="points">
              <mxPoint x="850" y="1020" />
              <mxPoint x="430" y="970" />
              <mxPoint x="400" y="970" />
              <mxPoint x="570" y="950" />
              <mxPoint x="400" y="1050" />
              <mxPoint x="380" y="960" />
              <mxPoint x="390" y="960" />
              <mxPoint x="410" y="970" />
              <mxPoint x="443.5" y="1010" />
              <mxPoint x="413.5" y="1020" />
              <mxPoint x="443.5" y="1070" />
              <mxPoint x="473.5" y="1050" />
            </Array>
          </mxGeometry>
        </mxCell>
      </root>
    </mxGraphModel>
  </diagram>
  <diagram name="forEach" id="QitO579372CH9NmkdHUQ">
    <mxGraphModel dx="786" dy="523" grid="1" gridSize="10" guides="1" tooltips="1" connect="1" arrows="1" fold="1" page="1" pageScale="1" pageWidth="827" pageHeight="1169" math="0" shadow="0">
      <root>
        <mxCell id="ShbDKrCvpHO8_BGKxu80-0" />
        <mxCell id="ShbDKrCvpHO8_BGKxu80-1" parent="ShbDKrCvpHO8_BGKxu80-0" />
        <mxCell id="ShbDKrCvpHO8_BGKxu80-2" value="Input" style="shape=mxgraph.bpmn.data;labelPosition=center;verticalLabelPosition=bottom;align=center;verticalAlign=top;whiteSpace=wrap;size=15;html=1;bpmnTransferType=input;isCollection=1;fillColor=#f8cecc;strokeColor=#b85450;" parent="ShbDKrCvpHO8_BGKxu80-1" vertex="1">
          <mxGeometry x="142.5" y="280" width="35" height="40" as="geometry" />
        </mxCell>
        <mxCell id="ShbDKrCvpHO8_BGKxu80-3" value="" style="edgeStyle=elbowEdgeStyle;fontSize=12;html=1;endFill=0;startFill=0;endSize=6;startSize=6;dashed=1;dashPattern=1 4;endArrow=openThin;startArrow=none;entryX=0.25;entryY=1;entryDx=0;entryDy=0;entryPerimeter=0;exitX=0;exitY=0;exitDx=35;exitDy=27.5;exitPerimeter=0;" parent="ShbDKrCvpHO8_BGKxu80-1" source="ShbDKrCvpHO8_BGKxu80-2" target="ShbDKrCvpHO8_BGKxu80-8" edge="1">
          <mxGeometry width="160" relative="1" as="geometry">
            <mxPoint x="190" y="350" as="sourcePoint" />
            <mxPoint x="260" y="400" as="targetPoint" />
            <Array as="points">
              <mxPoint x="260" y="300" />
              <mxPoint x="220" y="300" />
              <mxPoint x="260" y="330" />
              <mxPoint x="270" y="348" />
              <mxPoint x="290" y="390" />
            </Array>
          </mxGeometry>
        </mxCell>
        <mxCell id="ShbDKrCvpHO8_BGKxu80-4" value="" style="points=[[0.145,0.145,0],[0.5,0,0],[0.855,0.145,0],[1,0.5,0],[0.855,0.855,0],[0.5,1,0],[0.145,0.855,0],[0,0.5,0]];shape=mxgraph.bpmn.event;html=1;verticalLabelPosition=bottom;labelBackgroundColor=#ffffff;verticalAlign=top;align=center;perimeter=ellipsePerimeter;outlineConnect=0;aspect=fixed;outline=standard;symbol=general;" parent="ShbDKrCvpHO8_BGKxu80-1" vertex="1">
          <mxGeometry x="140" y="220" width="40" height="40" as="geometry" />
        </mxCell>
        <mxCell id="ShbDKrCvpHO8_BGKxu80-5" value="" style="edgeStyle=elbowEdgeStyle;fontSize=12;html=1;endArrow=blockThin;endFill=1;exitX=1;exitY=0.5;exitDx=0;exitDy=0;exitPerimeter=0;entryX=0;entryY=0.5;entryDx=0;entryDy=0;entryPerimeter=0;" parent="ShbDKrCvpHO8_BGKxu80-1" source="ShbDKrCvpHO8_BGKxu80-4" target="ShbDKrCvpHO8_BGKxu80-8" edge="1">
          <mxGeometry width="160" relative="1" as="geometry">
            <mxPoint x="230" y="310" as="sourcePoint" />
            <mxPoint x="230" y="240" as="targetPoint" />
          </mxGeometry>
        </mxCell>
        <mxCell id="ShbDKrCvpHO8_BGKxu80-6" value="" style="edgeStyle=elbowEdgeStyle;fontSize=12;html=1;endArrow=blockThin;endFill=1;exitX=1;exitY=0.5;exitDx=0;exitDy=0;exitPerimeter=0;entryX=0;entryY=0.5;entryDx=0;entryDy=0;entryPerimeter=0;" parent="ShbDKrCvpHO8_BGKxu80-1" source="ShbDKrCvpHO8_BGKxu80-8" target="ShbDKrCvpHO8_BGKxu80-7" edge="1">
          <mxGeometry width="160" relative="1" as="geometry">
            <mxPoint x="350" y="240" as="sourcePoint" />
            <mxPoint x="390" y="240" as="targetPoint" />
          </mxGeometry>
        </mxCell>
        <mxCell id="ShbDKrCvpHO8_BGKxu80-7" value="" style="points=[[0.145,0.145,0],[0.5,0,0],[0.855,0.145,0],[1,0.5,0],[0.855,0.855,0],[0.5,1,0],[0.145,0.855,0],[0,0.5,0]];shape=mxgraph.bpmn.event;html=1;verticalLabelPosition=bottom;labelBackgroundColor=#ffffff;verticalAlign=top;align=center;perimeter=ellipsePerimeter;outlineConnect=0;aspect=fixed;outline=end;symbol=terminate2;" parent="ShbDKrCvpHO8_BGKxu80-1" vertex="1">
          <mxGeometry x="389" y="220" width="40" height="40" as="geometry" />
        </mxCell>
        <mxCell id="ShbDKrCvpHO8_BGKxu80-8" value="Subflow" style="points=[[0.25,0,0],[0.5,0,0],[0.75,0,0],[1,0.25,0],[1,0.5,0],[1,0.75,0],[0.75,1,0],[0.5,1,0],[0.25,1,0],[0,0.75,0],[0,0.5,0],[0,0.25,0]];shape=mxgraph.bpmn.task;whiteSpace=wrap;rectStyle=rounded;size=10;taskMarker=abstract;isLoopSub=1;isLoopMultiParallel=1;fillColor=#d5e8d4;strokeColor=#82b366;" parent="ShbDKrCvpHO8_BGKxu80-1" vertex="1">
          <mxGeometry x="230" y="220" width="120" height="40" as="geometry" />
        </mxCell>
        <mxCell id="ShbDKrCvpHO8_BGKxu80-10" value="Action Results" style="shape=mxgraph.bpmn.data;labelPosition=center;verticalLabelPosition=bottom;align=center;verticalAlign=top;whiteSpace=wrap;size=15;html=1;bpmnTransferType=output;isCollection=1;fillColor=#e1d5e7;strokeColor=#9673a6;" parent="ShbDKrCvpHO8_BGKxu80-1" vertex="1">
          <mxGeometry x="391" y="280" width="36" height="40" as="geometry" />
        </mxCell>
        <mxCell id="ShbDKrCvpHO8_BGKxu80-11" value="" style="edgeStyle=elbowEdgeStyle;fontSize=12;html=1;endFill=0;startFill=0;endSize=6;startSize=6;dashed=1;dashPattern=1 4;endArrow=openThin;startArrow=none;exitX=0.75;exitY=1;exitDx=0;exitDy=0;exitPerimeter=0;entryX=0;entryY=0.5;entryDx=0;entryDy=0;entryPerimeter=0;" parent="ShbDKrCvpHO8_BGKxu80-1" source="ShbDKrCvpHO8_BGKxu80-8" target="ShbDKrCvpHO8_BGKxu80-10" edge="1">
          <mxGeometry width="160" relative="1" as="geometry">
            <mxPoint x="195" y="357.5" as="sourcePoint" />
            <mxPoint x="390" y="350" as="targetPoint" />
            <Array as="points">
              <mxPoint x="320" y="300" />
              <mxPoint x="270" y="340" />
              <mxPoint x="280" y="358" />
              <mxPoint x="300" y="400" />
            </Array>
          </mxGeometry>
        </mxCell>
      </root>
    </mxGraphModel>
  </diagram>
  <diagram name="parallel" id="KHTnShrRjZycdclNUGyd">
    <mxGraphModel dx="786" dy="523" grid="1" gridSize="10" guides="1" tooltips="1" connect="1" arrows="1" fold="1" page="1" pageScale="1" pageWidth="827" pageHeight="1169" math="0" shadow="0">
      <root>
        <mxCell id="-Kfl5Yff4n1fGkrnOYJT-0" />
        <mxCell id="-Kfl5Yff4n1fGkrnOYJT-1" parent="-Kfl5Yff4n1fGkrnOYJT-0" />
        <mxCell id="-Kfl5Yff4n1fGkrnOYJT-12" value="" style="edgeStyle=elbowEdgeStyle;fontSize=12;html=1;endFill=0;startFill=0;endSize=6;startSize=6;dashed=1;dashPattern=1 4;endArrow=openThin;startArrow=none;exitX=0.5;exitY=0;exitDx=0;exitDy=0;exitPerimeter=0;entryX=0.25;entryY=1;entryDx=0;entryDy=0;entryPerimeter=0;elbow=vertical;" parent="-Kfl5Yff4n1fGkrnOYJT-1" source="-Kfl5Yff4n1fGkrnOYJT-41" target="-Kfl5Yff4n1fGkrnOYJT-19" edge="1">
          <mxGeometry width="160" relative="1" as="geometry">
            <mxPoint x="80" y="1050" as="sourcePoint" />
            <mxPoint x="240" y="960" as="targetPoint" />
            <Array as="points">
              <mxPoint x="130" y="640" />
              <mxPoint x="120" y="660" />
              <mxPoint x="180" y="690" />
              <mxPoint x="90" y="710" />
              <mxPoint x="170" y="680" />
              <mxPoint x="180" y="670" />
              <mxPoint x="140" y="680" />
              <mxPoint x="90" y="790" />
              <mxPoint x="120" y="680" />
              <mxPoint x="60" y="840" />
              <mxPoint x="140" y="680" />
              <mxPoint x="70" y="920" />
              <mxPoint x="110" y="680" />
              <mxPoint x="100" y="850" />
              <mxPoint x="210" y="680" />
            </Array>
          </mxGeometry>
        </mxCell>
        <mxCell id="-Kfl5Yff4n1fGkrnOYJT-13" value="" style="points=[[0.145,0.145,0],[0.5,0,0],[0.855,0.145,0],[1,0.5,0],[0.855,0.855,0],[0.5,1,0],[0.145,0.855,0],[0,0.5,0]];shape=mxgraph.bpmn.event;html=1;verticalLabelPosition=bottom;labelBackgroundColor=#ffffff;verticalAlign=top;align=center;perimeter=ellipsePerimeter;outlineConnect=0;aspect=fixed;outline=standard;symbol=general;" parent="-Kfl5Yff4n1fGkrnOYJT-1" vertex="1">
          <mxGeometry y="700" width="40" height="40" as="geometry" />
        </mxCell>
        <mxCell id="-Kfl5Yff4n1fGkrnOYJT-14" value="" style="edgeStyle=elbowEdgeStyle;fontSize=12;html=1;endArrow=blockThin;endFill=1;exitX=1;exitY=0.5;exitDx=0;exitDy=0;exitPerimeter=0;entryX=0;entryY=0.5;entryDx=0;entryDy=0;entryPerimeter=0;" parent="-Kfl5Yff4n1fGkrnOYJT-1" source="-Kfl5Yff4n1fGkrnOYJT-13" target="-Kfl5Yff4n1fGkrnOYJT-22" edge="1">
          <mxGeometry width="160" relative="1" as="geometry">
            <mxPoint x="120" y="805" as="sourcePoint" />
            <mxPoint x="120" y="735" as="targetPoint" />
          </mxGeometry>
        </mxCell>
        <mxCell id="-Kfl5Yff4n1fGkrnOYJT-15" value="" style="edgeStyle=elbowEdgeStyle;fontSize=12;html=1;endArrow=blockThin;endFill=1;exitX=1;exitY=0.5;exitDx=0;exitDy=0;exitPerimeter=0;entryX=0;entryY=0.5;entryDx=0;entryDy=0;entryPerimeter=0;" parent="-Kfl5Yff4n1fGkrnOYJT-1" source="-Kfl5Yff4n1fGkrnOYJT-27" target="-Kfl5Yff4n1fGkrnOYJT-16" edge="1">
          <mxGeometry width="160" relative="1" as="geometry">
            <mxPoint x="790" y="595" as="sourcePoint" />
            <mxPoint x="830" y="595" as="targetPoint" />
          </mxGeometry>
        </mxCell>
        <mxCell id="-Kfl5Yff4n1fGkrnOYJT-16" value="" style="points=[[0.145,0.145,0],[0.5,0,0],[0.855,0.145,0],[1,0.5,0],[0.855,0.855,0],[0.5,1,0],[0.145,0.855,0],[0,0.5,0]];shape=mxgraph.bpmn.event;html=1;verticalLabelPosition=bottom;labelBackgroundColor=#ffffff;verticalAlign=top;align=center;perimeter=ellipsePerimeter;outlineConnect=0;aspect=fixed;outline=end;symbol=terminate2;" parent="-Kfl5Yff4n1fGkrnOYJT-1" vertex="1">
          <mxGeometry x="640" y="701" width="39" height="39" as="geometry" />
        </mxCell>
        <mxCell id="-Kfl5Yff4n1fGkrnOYJT-18" value="" style="edgeStyle=elbowEdgeStyle;fontSize=12;html=1;endFill=0;startFill=0;endSize=6;startSize=6;dashed=1;dashPattern=1 4;endArrow=openThin;startArrow=none;entryX=0;entryY=0.5;entryDx=0;entryDy=0;entryPerimeter=0;exitX=0.75;exitY=1;exitDx=0;exitDy=0;exitPerimeter=0;" parent="-Kfl5Yff4n1fGkrnOYJT-1" source="-Kfl5Yff4n1fGkrnOYJT-21" target="-Kfl5Yff4n1fGkrnOYJT-40" edge="1">
          <mxGeometry width="160" relative="1" as="geometry">
            <mxPoint x="320" y="950" as="sourcePoint" />
            <mxPoint x="394" y="1029" as="targetPoint" />
            <Array as="points">
              <mxPoint x="330" y="930" />
              <mxPoint x="330" y="960" />
              <mxPoint x="330" y="1000" />
              <mxPoint x="274" y="1019" />
              <mxPoint x="284" y="1037" />
              <mxPoint x="304" y="1079" />
            </Array>
          </mxGeometry>
        </mxCell>
        <mxCell id="-Kfl5Yff4n1fGkrnOYJT-19" value="Subflow 1" style="points=[[0.25,0,0],[0.5,0,0],[0.75,0,0],[1,0.25,0],[1,0.5,0],[1,0.75,0],[0.75,1,0],[0.5,1,0],[0.25,1,0],[0,0.75,0],[0,0.5,0],[0,0.25,0]];shape=mxgraph.bpmn.task;whiteSpace=wrap;rectStyle=rounded;size=10;taskMarker=abstract;isLoopSub=1;fillColor=#d5e8d4;strokeColor=#82b366;" parent="-Kfl5Yff4n1fGkrnOYJT-1" vertex="1">
          <mxGeometry x="240" y="580" width="120" height="40" as="geometry" />
        </mxCell>
        <mxCell id="-Kfl5Yff4n1fGkrnOYJT-20" value="Subflow 2" style="points=[[0.25,0,0],[0.5,0,0],[0.75,0,0],[1,0.25,0],[1,0.5,0],[1,0.75,0],[0.75,1,0],[0.5,1,0],[0.25,1,0],[0,0.75,0],[0,0.5,0],[0,0.25,0]];shape=mxgraph.bpmn.task;whiteSpace=wrap;rectStyle=rounded;size=10;taskMarker=abstract;isLoopSub=1;fillColor=#d5e8d4;strokeColor=#82b366;" parent="-Kfl5Yff4n1fGkrnOYJT-1" vertex="1">
          <mxGeometry x="240" y="700" width="120" height="40" as="geometry" />
        </mxCell>
        <mxCell id="-Kfl5Yff4n1fGkrnOYJT-21" value="Subflow n" style="points=[[0.25,0,0],[0.5,0,0],[0.75,0,0],[1,0.25,0],[1,0.5,0],[1,0.75,0],[0.75,1,0],[0.5,1,0],[0.25,1,0],[0,0.75,0],[0,0.5,0],[0,0.25,0]];shape=mxgraph.bpmn.task;whiteSpace=wrap;rectStyle=rounded;size=10;taskMarker=abstract;isLoopSub=1;fillColor=#d5e8d4;strokeColor=#82b366;" parent="-Kfl5Yff4n1fGkrnOYJT-1" vertex="1">
          <mxGeometry x="240" y="860" width="120" height="40" as="geometry" />
        </mxCell>
        <mxCell id="-Kfl5Yff4n1fGkrnOYJT-22" value="" style="points=[[0.25,0.25,0],[0.5,0,0],[0.75,0.25,0],[1,0.5,0],[0.75,0.75,0],[0.5,1,0],[0.25,0.75,0],[0,0.5,0]];shape=mxgraph.bpmn.gateway2;html=1;verticalLabelPosition=bottom;labelBackgroundColor=#ffffff;verticalAlign=top;align=center;perimeter=rhombusPerimeter;outlineConnect=0;outline=none;symbol=none;gwType=parallel;fillColor=#f5f5f5;strokeColor=#666666;fontColor=#333333;" parent="-Kfl5Yff4n1fGkrnOYJT-1" vertex="1">
          <mxGeometry x="120" y="700" width="40" height="40" as="geometry" />
        </mxCell>
        <mxCell id="-Kfl5Yff4n1fGkrnOYJT-23" value="&lt;font&gt;&lt;font style=&quot;font-size: 30px&quot;&gt;...&lt;/font&gt;&lt;br&gt;&lt;/font&gt;" style="text;html=1;strokeColor=none;fillColor=none;align=center;verticalAlign=middle;whiteSpace=wrap;rounded=0;" parent="-Kfl5Yff4n1fGkrnOYJT-1" vertex="1">
          <mxGeometry x="255" y="820" width="90" height="20" as="geometry" />
        </mxCell>
        <mxCell id="-Kfl5Yff4n1fGkrnOYJT-24" value="" style="edgeStyle=elbowEdgeStyle;fontSize=12;html=1;endArrow=blockThin;endFill=1;exitX=1;exitY=0.5;exitDx=0;exitDy=0;exitPerimeter=0;entryX=0;entryY=0.5;entryDx=0;entryDy=0;entryPerimeter=0;" parent="-Kfl5Yff4n1fGkrnOYJT-1" source="-Kfl5Yff4n1fGkrnOYJT-22" target="-Kfl5Yff4n1fGkrnOYJT-19" edge="1">
          <mxGeometry width="160" relative="1" as="geometry">
            <mxPoint x="90" y="745" as="sourcePoint" />
            <mxPoint x="130" y="745" as="targetPoint" />
            <Array as="points">
              <mxPoint x="200" y="660" />
              <mxPoint x="190" y="630" />
            </Array>
          </mxGeometry>
        </mxCell>
        <mxCell id="-Kfl5Yff4n1fGkrnOYJT-25" value="" style="edgeStyle=elbowEdgeStyle;fontSize=12;html=1;endArrow=blockThin;endFill=1;exitX=1;exitY=0.5;exitDx=0;exitDy=0;exitPerimeter=0;entryX=0;entryY=0.5;entryDx=0;entryDy=0;entryPerimeter=0;" parent="-Kfl5Yff4n1fGkrnOYJT-1" source="-Kfl5Yff4n1fGkrnOYJT-22" target="-Kfl5Yff4n1fGkrnOYJT-20" edge="1">
          <mxGeometry width="160" relative="1" as="geometry">
            <mxPoint x="180" y="745" as="sourcePoint" />
            <mxPoint x="230" y="650" as="targetPoint" />
            <Array as="points">
              <mxPoint x="200" y="730" />
            </Array>
          </mxGeometry>
        </mxCell>
        <mxCell id="-Kfl5Yff4n1fGkrnOYJT-26" value="" style="edgeStyle=elbowEdgeStyle;fontSize=12;html=1;endArrow=blockThin;endFill=1;exitX=1;exitY=0.5;exitDx=0;exitDy=0;exitPerimeter=0;entryX=0;entryY=0.5;entryDx=0;entryDy=0;entryPerimeter=0;" parent="-Kfl5Yff4n1fGkrnOYJT-1" source="-Kfl5Yff4n1fGkrnOYJT-22" target="-Kfl5Yff4n1fGkrnOYJT-21" edge="1">
          <mxGeometry width="160" relative="1" as="geometry">
            <mxPoint x="180" y="745" as="sourcePoint" />
            <mxPoint x="230" y="650" as="targetPoint" />
            <Array as="points">
              <mxPoint x="200" y="790" />
              <mxPoint x="190" y="790" />
            </Array>
          </mxGeometry>
        </mxCell>
        <mxCell id="-Kfl5Yff4n1fGkrnOYJT-27" value="" style="points=[[0.25,0.25,0],[0.5,0,0],[0.75,0.25,0],[1,0.5,0],[0.75,0.75,0],[0.5,1,0],[0.25,0.75,0],[0,0.5,0]];shape=mxgraph.bpmn.gateway2;html=1;verticalLabelPosition=bottom;labelBackgroundColor=#ffffff;verticalAlign=top;align=center;perimeter=rhombusPerimeter;outlineConnect=0;outline=none;symbol=none;gwType=parallel;fillColor=#f5f5f5;strokeColor=#666666;fontColor=#333333;" parent="-Kfl5Yff4n1fGkrnOYJT-1" vertex="1">
          <mxGeometry x="560" y="700" width="40" height="41" as="geometry" />
        </mxCell>
        <mxCell id="-Kfl5Yff4n1fGkrnOYJT-28" value="" style="edgeStyle=elbowEdgeStyle;fontSize=12;html=1;endFill=0;startFill=0;endSize=6;startSize=6;dashed=1;dashPattern=1 4;endArrow=openThin;startArrow=none;exitX=0.5;exitY=0;exitDx=0;exitDy=0;exitPerimeter=0;entryX=0.25;entryY=1;entryDx=0;entryDy=0;entryPerimeter=0;elbow=vertical;" parent="-Kfl5Yff4n1fGkrnOYJT-1" source="-Kfl5Yff4n1fGkrnOYJT-41" target="-Kfl5Yff4n1fGkrnOYJT-20" edge="1">
          <mxGeometry width="160" relative="1" as="geometry">
            <mxPoint x="80" y="1050" as="sourcePoint" />
            <mxPoint x="280" y="661" as="targetPoint" />
            <Array as="points">
              <mxPoint x="130" y="760" />
              <mxPoint x="150" y="780" />
              <mxPoint x="130" y="800" />
              <mxPoint x="160" y="840" />
              <mxPoint x="140" y="830" />
              <mxPoint x="140" y="820" />
              <mxPoint x="130" y="850" />
              <mxPoint x="150" y="820" />
              <mxPoint x="130" y="690" />
              <mxPoint x="70" y="850" />
              <mxPoint x="150" y="690" />
              <mxPoint x="80" y="930" />
              <mxPoint x="120" y="690" />
              <mxPoint x="110" y="860" />
              <mxPoint x="220" y="690" />
            </Array>
          </mxGeometry>
        </mxCell>
        <mxCell id="-Kfl5Yff4n1fGkrnOYJT-29" value="" style="edgeStyle=elbowEdgeStyle;fontSize=12;html=1;endFill=0;startFill=0;endSize=6;startSize=6;dashed=1;dashPattern=1 4;endArrow=openThin;startArrow=none;entryX=0.25;entryY=1;entryDx=0;entryDy=0;entryPerimeter=0;elbow=vertical;exitX=0.5;exitY=0;exitDx=0;exitDy=0;exitPerimeter=0;" parent="-Kfl5Yff4n1fGkrnOYJT-1" source="-Kfl5Yff4n1fGkrnOYJT-41" target="-Kfl5Yff4n1fGkrnOYJT-21" edge="1">
          <mxGeometry width="160" relative="1" as="geometry">
            <mxPoint x="80" y="1050" as="sourcePoint" />
            <mxPoint x="280" y="801" as="targetPoint" />
            <Array as="points">
              <mxPoint x="210" y="920" />
              <mxPoint x="230" y="980" />
              <mxPoint x="240" y="970" />
              <mxPoint x="170" y="1010" />
              <mxPoint x="160" y="1000" />
              <mxPoint x="130" y="990" />
              <mxPoint x="120" y="970" />
              <mxPoint x="140" y="1018" />
              <mxPoint x="150" y="990" />
              <mxPoint x="160" y="830" />
              <mxPoint x="140" y="700" />
              <mxPoint x="80" y="860" />
              <mxPoint x="160" y="700" />
              <mxPoint x="90" y="940" />
              <mxPoint x="130" y="700" />
              <mxPoint x="120" y="870" />
              <mxPoint x="230" y="700" />
            </Array>
          </mxGeometry>
        </mxCell>
        <mxCell id="-Kfl5Yff4n1fGkrnOYJT-30" value="" style="edgeStyle=elbowEdgeStyle;fontSize=12;html=1;endArrow=blockThin;endFill=1;exitX=1;exitY=0.5;exitDx=0;exitDy=0;exitPerimeter=0;entryX=0;entryY=0.5;entryDx=0;entryDy=0;entryPerimeter=0;" parent="-Kfl5Yff4n1fGkrnOYJT-1" source="-Kfl5Yff4n1fGkrnOYJT-20" target="-Kfl5Yff4n1fGkrnOYJT-27" edge="1">
          <mxGeometry width="160" relative="1" as="geometry">
            <mxPoint x="90" y="745" as="sourcePoint" />
            <mxPoint x="130" y="745" as="targetPoint" />
            <Array as="points">
              <mxPoint x="540" y="730" />
              <mxPoint x="480" y="760" />
              <mxPoint x="520" y="740" />
            </Array>
          </mxGeometry>
        </mxCell>
        <mxCell id="-Kfl5Yff4n1fGkrnOYJT-31" value="" style="edgeStyle=elbowEdgeStyle;fontSize=12;html=1;endArrow=blockThin;endFill=1;exitX=1;exitY=0.5;exitDx=0;exitDy=0;exitPerimeter=0;entryX=0;entryY=0.5;entryDx=0;entryDy=0;entryPerimeter=0;" parent="-Kfl5Yff4n1fGkrnOYJT-1" source="-Kfl5Yff4n1fGkrnOYJT-21" target="-Kfl5Yff4n1fGkrnOYJT-27" edge="1">
          <mxGeometry width="160" relative="1" as="geometry">
            <mxPoint x="370" y="761" as="sourcePoint" />
            <mxPoint x="440" y="746" as="targetPoint" />
            <Array as="points">
              <mxPoint x="480" y="830" />
              <mxPoint x="520" y="820" />
              <mxPoint x="400" y="780" />
            </Array>
          </mxGeometry>
        </mxCell>
        <mxCell id="-Kfl5Yff4n1fGkrnOYJT-32" value="" style="edgeStyle=elbowEdgeStyle;fontSize=12;html=1;endArrow=blockThin;endFill=1;exitX=1;exitY=0.5;exitDx=0;exitDy=0;exitPerimeter=0;entryX=0;entryY=0.5;entryDx=0;entryDy=0;entryPerimeter=0;" parent="-Kfl5Yff4n1fGkrnOYJT-1" source="-Kfl5Yff4n1fGkrnOYJT-19" target="-Kfl5Yff4n1fGkrnOYJT-27" edge="1">
          <mxGeometry width="160" relative="1" as="geometry">
            <mxPoint x="370" y="930" as="sourcePoint" />
            <mxPoint x="440" y="746" as="targetPoint" />
            <Array as="points">
              <mxPoint x="480" y="660" />
              <mxPoint x="520" y="690" />
              <mxPoint x="400" y="680" />
            </Array>
          </mxGeometry>
        </mxCell>
        <mxCell id="-Kfl5Yff4n1fGkrnOYJT-33" value="Action Res. 1" style="shape=mxgraph.bpmn.data;labelPosition=center;verticalLabelPosition=bottom;align=center;verticalAlign=top;whiteSpace=wrap;size=15;html=1;fillColor=#e1d5e7;strokeColor=#9673a6;" parent="-Kfl5Yff4n1fGkrnOYJT-1" vertex="1">
          <mxGeometry x="391" y="620" width="37" height="40" as="geometry" />
        </mxCell>
        <mxCell id="-Kfl5Yff4n1fGkrnOYJT-34" value="" style="edgeStyle=elbowEdgeStyle;fontSize=12;html=1;endFill=0;startFill=0;endSize=6;startSize=6;dashed=1;dashPattern=1 4;endArrow=openThin;startArrow=none;entryX=0;entryY=0.5;entryDx=0;entryDy=0;entryPerimeter=0;elbow=vertical;exitX=0.75;exitY=1;exitDx=0;exitDy=0;exitPerimeter=0;" parent="-Kfl5Yff4n1fGkrnOYJT-1" source="-Kfl5Yff4n1fGkrnOYJT-19" target="-Kfl5Yff4n1fGkrnOYJT-33" edge="1">
          <mxGeometry width="160" relative="1" as="geometry">
            <mxPoint x="380" y="660" as="sourcePoint" />
            <mxPoint x="280" y="661" as="targetPoint" />
            <Array as="points">
              <mxPoint x="360" y="640" />
              <mxPoint x="350" y="660" />
              <mxPoint x="350" y="680" />
              <mxPoint x="390" y="780" />
              <mxPoint x="150" y="690" />
              <mxPoint x="100" y="800" />
              <mxPoint x="130" y="690" />
              <mxPoint x="70" y="850" />
              <mxPoint x="150" y="690" />
              <mxPoint x="80" y="930" />
              <mxPoint x="120" y="690" />
              <mxPoint x="110" y="860" />
              <mxPoint x="220" y="690" />
            </Array>
          </mxGeometry>
        </mxCell>
        <mxCell id="-Kfl5Yff4n1fGkrnOYJT-35" value="" style="edgeStyle=elbowEdgeStyle;fontSize=12;html=1;endFill=0;startFill=0;endSize=6;startSize=6;dashed=1;dashPattern=1 4;endArrow=openThin;startArrow=none;entryX=0;entryY=0.5;entryDx=0;entryDy=0;entryPerimeter=0;elbow=vertical;exitX=0.75;exitY=1;exitDx=0;exitDy=0;exitPerimeter=0;" parent="-Kfl5Yff4n1fGkrnOYJT-1" source="-Kfl5Yff4n1fGkrnOYJT-20" target="-Kfl5Yff4n1fGkrnOYJT-39" edge="1">
          <mxGeometry width="160" relative="1" as="geometry">
            <mxPoint x="340" y="661" as="sourcePoint" />
            <mxPoint x="399" y="840" as="targetPoint" />
            <Array as="points">
              <mxPoint x="370" y="760" />
              <mxPoint x="350" y="781" />
              <mxPoint x="360" y="800" />
              <mxPoint x="340" y="790" />
              <mxPoint x="360" y="840" />
              <mxPoint x="360" y="690" />
              <mxPoint x="400" y="790" />
              <mxPoint x="160" y="700" />
              <mxPoint x="110" y="810" />
              <mxPoint x="140" y="700" />
              <mxPoint x="80" y="860" />
              <mxPoint x="160" y="700" />
              <mxPoint x="90" y="940" />
              <mxPoint x="130" y="700" />
              <mxPoint x="120" y="870" />
              <mxPoint x="230" y="700" />
            </Array>
          </mxGeometry>
        </mxCell>
        <mxCell id="-Kfl5Yff4n1fGkrnOYJT-36" value="" style="edgeStyle=elbowEdgeStyle;fontSize=12;html=1;endFill=0;startFill=0;endSize=6;startSize=6;dashed=1;dashPattern=1 4;endArrow=openThin;startArrow=none;entryX=0;entryY=0;entryDx=21;entryDy=0;entryPerimeter=0;exitX=0;exitY=0;exitDx=37;exitDy=27.5;exitPerimeter=0;" parent="-Kfl5Yff4n1fGkrnOYJT-1" source="-Kfl5Yff4n1fGkrnOYJT-33" target="-Kfl5Yff4n1fGkrnOYJT-42" edge="1">
          <mxGeometry width="160" relative="1" as="geometry">
            <mxPoint x="440" y="680" as="sourcePoint" />
            <mxPoint x="600" y="1050" as="targetPoint" />
            <Array as="points">
              <mxPoint x="521" y="710" />
              <mxPoint x="560" y="700" />
              <mxPoint x="520" y="800" />
              <mxPoint x="570" y="860" />
              <mxPoint x="340" y="1010" />
              <mxPoint x="284" y="1029" />
              <mxPoint x="294" y="1047" />
              <mxPoint x="314" y="1089" />
            </Array>
          </mxGeometry>
        </mxCell>
        <mxCell id="-Kfl5Yff4n1fGkrnOYJT-37" value="" style="edgeStyle=elbowEdgeStyle;fontSize=12;html=1;endFill=0;startFill=0;endSize=6;startSize=6;dashed=1;dashPattern=1 4;endArrow=openThin;startArrow=none;exitX=0;exitY=0;exitDx=37;exitDy=27.5;exitPerimeter=0;entryX=0;entryY=0;entryDx=21;entryDy=0;entryPerimeter=0;" parent="-Kfl5Yff4n1fGkrnOYJT-1" source="-Kfl5Yff4n1fGkrnOYJT-39" target="-Kfl5Yff4n1fGkrnOYJT-42" edge="1">
          <mxGeometry width="160" relative="1" as="geometry">
            <mxPoint x="439" y="847.5" as="sourcePoint" />
            <mxPoint x="580" y="1090" as="targetPoint" />
            <Array as="points">
              <mxPoint x="521" y="880" />
              <mxPoint x="580" y="870" />
              <mxPoint x="521" y="890" />
              <mxPoint x="610" y="890" />
              <mxPoint x="521" y="940" />
              <mxPoint x="520" y="920" />
              <mxPoint x="570" y="920" />
              <mxPoint x="600" y="880" />
              <mxPoint x="580" y="870" />
              <mxPoint x="350" y="1020" />
              <mxPoint x="294" y="1039" />
              <mxPoint x="304" y="1057" />
              <mxPoint x="324" y="1099" />
            </Array>
          </mxGeometry>
        </mxCell>
        <mxCell id="-Kfl5Yff4n1fGkrnOYJT-38" value="" style="edgeStyle=elbowEdgeStyle;fontSize=12;html=1;endFill=0;startFill=0;endSize=6;startSize=6;dashed=1;dashPattern=1 4;endArrow=openThin;startArrow=none;exitX=0;exitY=0;exitDx=37;exitDy=27.5;exitPerimeter=0;entryX=0;entryY=0;entryDx=21;entryDy=0;entryPerimeter=0;" parent="-Kfl5Yff4n1fGkrnOYJT-1" source="-Kfl5Yff4n1fGkrnOYJT-40" target="-Kfl5Yff4n1fGkrnOYJT-42" edge="1">
          <mxGeometry width="160" relative="1" as="geometry">
            <mxPoint x="449" y="857.5" as="sourcePoint" />
            <mxPoint x="580" y="1090" as="targetPoint" />
            <Array as="points">
              <mxPoint x="521" y="940" />
              <mxPoint x="521" y="1010" />
              <mxPoint x="521" y="1010" />
              <mxPoint x="520" y="1040" />
              <mxPoint x="570" y="1040" />
              <mxPoint x="540" y="1000" />
              <mxPoint x="580" y="930" />
              <mxPoint x="610" y="890" />
              <mxPoint x="590" y="880" />
              <mxPoint x="360" y="1030" />
              <mxPoint x="304" y="1049" />
              <mxPoint x="314" y="1067" />
              <mxPoint x="334" y="1109" />
            </Array>
          </mxGeometry>
        </mxCell>
        <mxCell id="-Kfl5Yff4n1fGkrnOYJT-39" value="Action Res. 2" style="shape=mxgraph.bpmn.data;labelPosition=center;verticalLabelPosition=bottom;align=center;verticalAlign=top;whiteSpace=wrap;size=15;html=1;fillColor=#e1d5e7;strokeColor=#9673a6;" parent="-Kfl5Yff4n1fGkrnOYJT-1" vertex="1">
          <mxGeometry x="392" y="740" width="37" height="40" as="geometry" />
        </mxCell>
        <mxCell id="-Kfl5Yff4n1fGkrnOYJT-40" value="Action Res. n" style="shape=mxgraph.bpmn.data;labelPosition=center;verticalLabelPosition=bottom;align=center;verticalAlign=top;whiteSpace=wrap;size=15;html=1;fillColor=#e1d5e7;strokeColor=#9673a6;" parent="-Kfl5Yff4n1fGkrnOYJT-1" vertex="1">
          <mxGeometry x="391" y="900" width="37" height="40" as="geometry" />
        </mxCell>
        <mxCell id="-Kfl5Yff4n1fGkrnOYJT-41" value="Input" style="shape=mxgraph.bpmn.data;labelPosition=center;verticalLabelPosition=bottom;align=center;verticalAlign=top;whiteSpace=wrap;size=15;html=1;bpmnTransferType=input;isCollection=1;fillColor=#f8cecc;strokeColor=#b85450;" parent="-Kfl5Yff4n1fGkrnOYJT-1" vertex="1">
          <mxGeometry x="60" y="960" width="35" height="40" as="geometry" />
        </mxCell>
        <mxCell id="-Kfl5Yff4n1fGkrnOYJT-42" value="Action Results" style="shape=mxgraph.bpmn.data;labelPosition=center;verticalLabelPosition=bottom;align=center;verticalAlign=top;whiteSpace=wrap;size=15;html=1;bpmnTransferType=output;isCollection=1;fillColor=#e1d5e7;strokeColor=#9673a6;" parent="-Kfl5Yff4n1fGkrnOYJT-1" vertex="1">
          <mxGeometry x="500" y="960" width="36" height="40" as="geometry" />
        </mxCell>
      </root>
    </mxGraphModel>
  </diagram>
</mxfile>
